<?xml version="1.0" encoding="iso-8859-1"?>
<!-- Uploaded to: SVG Repo, www.svgrepo.com, Generator: SVG Repo Mixer Tools -->
<svg fill="#000000" height="800px" width="800px" version="1.1" id="Layer_1" xmlns="http://www.w3.org/2000/svg" xmlns:xlink="http://www.w3.org/1999/xlink" 
	 viewBox="0 0 512 512" xml:space="preserve">
<g>
	<g>
		<g>
			<path d="M454.613,0H57.387C25.707,0,0,25.707,0,57.387v397.227C0,486.293,25.707,512,57.387,512h397.227
				c31.68,0,57.387-25.707,57.387-57.387V57.387C512,25.707,486.293,0,454.613,0z M490.667,454.613
				c0,19.947-16.107,36.053-36.053,36.053H57.387c-19.947,0-36.053-16.107-36.053-36.053V57.387
				c0-19.947,16.107-36.053,36.053-36.053h397.227c19.947,0,36.053,16.107,36.053,36.053V454.613z"/>
			<path d="M253.44,166.4c-12.267-11.413-31.36-17.067-56.213-17.067c-16.107-0.107-32.107,1.28-47.893,4.053v209.28H176v-85.44
				c5.44,1.28,11.733,1.6,18.773,1.6c24.747,0,47.36-7.893,60.907-23.573c10.133-10.667,15.573-25.493,15.573-44.587
				C271.253,191.787,264.533,176.427,253.44,166.4z M195.307,257.067c-7.68,0-14.08-0.32-19.307-1.92V171.84
				c7.36-1.387,14.933-2.027,22.507-1.92c29.867,0,46.827,15.36,46.827,41.813C245.333,241.067,226.133,257.067,195.307,257.067z"/>
			<path d="M326.293,238.933h-0.96l-1.28-28.8h-23.467c0.64,13.227,1.28,28.693,1.28,45.12v107.413h26.667v-81.173
				c0-4.48,0.32-8.96,0.96-13.44c3.52-20.16,17.067-34.88,35.733-34.88c2.667-0.107,5.44,0.107,8.107,0.64v-26.24
				c-2.347-0.427-4.693-0.64-7.04-0.64C348.8,206.933,332.693,219.733,326.293,238.933z"/>
		</g>
	</g>
</g>
</svg>